<?xml version='1.0' encoding='utf-8'?>
<svg xmlns="http://www.w3.org/2000/svg" version="1.1" width="512" height="512" viewBox="0 0 512 512" fill="currentColor" id="icon">
    <path d="M0 0 C8.5942756 2.39005071 16.29938883 7.53658004 23.93359375 12.0234375 C30.35956494 15.79752325 36.8751338 19.40151921 43.3984375 23.00390625 C45.68389438 24.27419885 47.96905326 25.54502775 50.25390625 26.81640625 C54.51818807 29.18772071 58.7921735 31.53985199 63.07421875 33.87890625 C64.95345917 34.91996994 66.83238406 35.96160345 68.7109375 37.00390625 C69.55785156 37.45958984 70.40476562 37.91527344 71.27734375 38.38476562 C77.35079778 41.78371661 82.62921712 45.69624512 84.8984375 52.50390625 C87.33507043 65.62626199 80.58775663 77.27001886 75.4609375 88.94140625 C74.57137977 91.00752291 73.68399488 93.07457648 72.79882812 95.14257812 C71.47964739 98.22322183 70.15693761 101.30194799 68.81924438 104.37460327 C66.61127847 109.452229 64.46571647 114.54209264 62.44091797 119.69580078 C62.04807114 120.68927017 61.6552243 121.68273956 61.25047302 122.70631409 C60.51784499 124.57155809 59.79629669 126.44121123 59.08851624 128.31602478 C56.44594026 135.02349838 53.11840865 140.12726088 47.2734375 144.44140625 C41.09074203 146.38781038 34.70613297 146.38781038 28.5234375 144.44140625 C23.49200012 140.72772628 19.51638448 136.5739833 18.55249023 130.2253418 C17.96367033 119.89141603 21.95978779 111.59534808 25.9609375 102.31640625 C26.62631013 100.73324469 27.28973314 99.14926228 27.95117188 97.56445312 C29.26165422 94.43238459 30.58317825 91.30537243 31.91455078 88.18212891 C33.94423613 83.41231186 35.92516407 78.62311284 37.89453125 73.828125 C38.19770767 73.08996048 38.50088409 72.35179596 38.81324768 71.59126282 C39.5089897 69.89575566 40.20382508 68.1998765 40.8984375 66.50390625 C39.98368652 66.21402832 39.06893555 65.92415039 38.12646484 65.62548828 C35.6067468 64.75000918 33.53001099 63.89218509 31.25 62.55859375 C30.63769531 62.20410156 30.02539062 61.84960938 29.39453125 61.484375 C28.77707031 61.11957031 28.15960938 60.75476563 27.5234375 60.37890625 C26.88277344 60.00636719 26.24210938 59.63382813 25.58203125 59.25 C24.01795273 58.33956623 22.45778216 57.42242434 20.8984375 56.50390625 C21.6409375 57.22578125 22.3834375 57.94765625 23.1484375 58.69140625 C25.59343586 61.19197276 27.73958838 63.75921559 29.8984375 66.50390625 C29.16524292 68.25695068 29.16524292 68.25695068 28.41723633 70.04541016 C26.57782911 74.44608057 24.74320751 78.84873347 22.90991211 83.25195312 C22.12082035 85.14538772 21.33048881 87.0383062 20.53881836 88.93066406 C8.50568655 113.7294028 8.50568655 113.7294028 10.58203125 139.89453125 C14.59667475 147.85234092 20.52072215 152.59350443 28.8984375 155.50390625 C32.88297338 156.40242615 36.8484154 157.0003943 40.8984375 157.50390625 C42.63460273 167.56209125 44.1273941 177.65136306 45.60400391 187.75 C45.87022681 189.56480035 46.13653055 191.37958883 46.40290833 193.19436646 C47.27061916 199.10975236 48.13561187 205.02553401 49 210.94140625 C49.14759876 211.95147106 49.29519752 212.96153587 49.44726896 214.00220871 C50.84108211 223.5418675 52.23369563 233.08170087 53.62378883 242.62190247 C55.39547466 254.78030209 57.17284341 266.9378413 58.95783675 279.09429455 C60.21649961 287.66958101 61.46859336 296.24581145 62.71588838 304.82275867 C63.45941377 309.934306 64.20578983 315.04539802 64.95927811 320.15548706 C65.66773246 324.96107827 66.36800305 329.76779324 67.06218529 334.57546616 C67.31720171 336.33178582 67.57510255 338.08768966 67.83621788 339.84311295 C71.74390619 366.14760666 71.74390619 366.14760666 66.59765625 375.3046875 C63.06964913 379.87082085 58.31998832 382.69672264 52.8984375 384.50390625 C45.96884063 385.31101404 40.56639247 384.45188492 34.28515625 381.4765625 C27.44753149 375.82517052 24.96334353 368.78360922 23.86230469 360.24853516 C23.7108839 359.22532984 23.55946312 358.20212452 23.40345383 357.14791298 C23.06695217 354.85690469 22.74079318 352.5643607 22.42332458 350.27063751 C21.86499604 346.26392132 21.27226419 342.26339518 20.67150879 338.26287842 C19.37026668 329.5662212 18.10660398 320.86430274 16.84849262 312.16131544 C16.34476113 308.67858795 15.83951349 305.19608099 15.33432555 301.71356452 C14.1438244 293.50632928 12.95606356 285.29870074 11.77001953 277.09082031 C10.54942759 268.64425159 9.32374231 260.19843247 8.09570432 251.7529434 C7.03525299 244.45859971 5.97808282 237.16378552 4.92351413 229.86858904 C4.29616421 225.52906734 3.66754785 221.1897388 3.03568268 216.85087204 C2.44417457 212.78823466 1.85676303 208.72502575 1.27249718 204.66134071 C1.05789672 203.17362261 0.84185072 201.68611218 0.62423897 200.19883156 C0.32711164 198.16649681 0.03525817 196.13347057 -0.25531006 194.10018921 C-0.41972469 192.96437094 -0.58413933 191.82855267 -0.75353622 190.65831566 C-1.1015625 187.50390625 -1.1015625 187.50390625 -1.1015625 181.50390625 C-6.3815625 181.83390625 -11.6615625 182.16390625 -17.1015625 182.50390625 C-32.03358279 236.68187234 -32.03358279 236.68187234 -40.39518738 292.10552979 C-41.33481959 303.93363391 -42.69940125 315.72155689 -44.01082611 327.51307011 C-44.48447902 331.77902701 -44.94443361 336.04612809 -45.39089775 340.31501484 C-45.60328221 342.33635077 -45.81992448 344.35718046 -46.03823853 346.37788391 C-46.30648076 348.86369723 -46.56814491 351.35023308 -46.8218689 353.83757019 C-48.02259916 364.74450399 -49.53419269 374.04546531 -58.1015625 381.50390625 C-64.03284153 385.22549309 -70.29664255 385.29327696 -77.1015625 384.50390625 C-83.7526322 382.71149933 -88.34310094 378.13121609 -92.1015625 372.50390625 C-99.43136431 354.79021853 -90.52509121 323.26728351 -88.5390625 304.62890625 C-88.42276237 303.53623192 -88.30646225 302.44355759 -88.18663788 301.31777191 C-84.2874562 264.94910475 -78.29910408 230.19290863 -67.96337891 195.09423828 C-67.3425358 192.89752808 -66.72196065 190.70074215 -66.1015625 188.50390625 C-65.88711046 187.7899469 -65.67265842 187.07598755 -65.45170784 186.34039307 C-61.54217781 173.23303654 -60.59463878 161.77639225 -61.48828125 148.17578125 C-61.58773904 146.32120447 -61.68451184 144.46648198 -61.77876282 142.6116333 C-62.03013133 137.80310894 -62.3171444 132.99740297 -62.61248779 128.19140625 C-62.90905419 123.25772234 -63.17068289 118.32218802 -63.43554688 113.38671875 C-63.95734575 103.75703326 -64.51694508 94.12996839 -65.1015625 84.50390625 C-65.84636368 85.54620392 -66.59116486 86.58850159 -67.35853577 87.66238403 C-68.35078902 89.03701745 -69.3433541 90.41142583 -70.33618164 91.78564453 C-70.82525246 92.47181351 -71.31432327 93.15798248 -71.81821442 93.86494446 C-75.47540223 98.90813748 -79.0222405 102.40119418 -84.5390625 105.37890625 C-85.32853271 105.84264648 -86.11800293 106.30638672 -86.93139648 106.78417969 C-88.6814828 107.8121745 -90.43876194 108.8279986 -92.20214844 109.83300781 C-97.1515777 112.68530605 -102.00957459 115.68909061 -106.88336182 118.66802979 C-109.25823088 120.11623186 -111.63886831 121.55479844 -114.01950073 122.99349976 C-119.55389519 126.33885921 -125.07139959 129.70989745 -130.5703125 133.11328125 C-131.17109116 133.48479309 -131.77186981 133.85630493 -132.39085388 134.23907471 C-135.26834514 136.01905115 -138.14357212 137.80246028 -141.01586914 139.59082031 C-142.03543701 140.22213867 -143.05500488 140.85345703 -144.10546875 141.50390625 C-145.00080322 142.06078125 -145.8961377 142.61765625 -146.81860352 143.19140625 C-152.27964865 146.3310254 -157.97543846 145.93509426 -164.1015625 145.50390625 C-169.55404448 143.78738414 -172.8893634 140.10770952 -176.1015625 135.50390625 C-177.88839988 130.14339411 -178.05777301 123.82932624 -176.48828125 118.37109375 C-172.12234235 109.79308164 -161.20311517 104.96326533 -153.3515625 100.19140625 C-152.23426758 99.50788086 -151.11697266 98.82435547 -149.96582031 98.12011719 C-143.78092454 94.33800768 -137.5813746 90.57996535 -131.3828125 86.8203125 C-130.75042664 86.43667038 -130.11804077 86.05302826 -129.4664917 85.65776062 C-126.40145689 83.79872723 -123.33528522 81.94162774 -120.26660156 80.08862305 C-119.15510742 79.41613525 -118.04361328 78.74364746 -116.8984375 78.05078125 C-115.92229492 77.46135742 -114.94615234 76.87193359 -113.94042969 76.26464844 C-111.88247113 74.9882469 -109.86094152 73.6524997 -107.86425781 72.28222656 C-105.1015625 70.50390625 -105.1015625 70.50390625 -103.1015625 70.50390625 C-102.89402344 69.85035156 -102.68648438 69.19679688 -102.47265625 68.5234375 C-100.56961643 64.33241249 -97.90128018 60.87565325 -95.1640625 57.19140625 C-93.9802553 55.57663079 -92.79799083 53.96072334 -91.6171875 52.34375 C-91.02486328 51.53276855 -90.43253906 50.72178711 -89.82226562 49.88623047 C-87.76005413 47.03108578 -85.7524669 44.14266914 -83.7668457 41.23388672 C-82.86674943 39.91647456 -81.95903351 38.60423543 -81.04370117 37.29736328 C-78.79792335 34.07891513 -76.70617664 30.85768944 -74.79296875 27.4296875 C-69.45630441 18.28014825 -69.45630441 18.28014825 -65.20117188 16.87744141 C-60.84780853 16.20322089 -56.52141277 16.41156832 -52.13330078 16.53955078 C-43.65602904 16.39082672 -34.73102575 11.50838561 -28.1015625 6.50390625 C-27.08519225 5.22508089 -26.08462662 3.93350876 -25.1015625 2.62890625 C-19.21386884 -3.67833802 -7.69288315 -1.23047375 0 0 Z " fill="currentColor" transform="translate(427.1015625,100.49609375)" />
    <path d="M0 0 C0.90331055 0.01135986 1.80662109 0.02271973 2.73730469 0.03442383 C9.85097482 0.24068195 15.97171177 1.41912285 22.4375 4.5 C23.21867188 4.850625 23.99984375 5.20125 24.8046875 5.5625 C40.55675223 13.41127966 48.18876894 27.00291807 53.63671875 43.02734375 C55.79314204 49.99599586 57.04273792 56.2035206 56.4375 63.5 C54.7875 61.85 53.1375 60.2 51.4375 58.5 C51.4375 65.84293385 55.06429789 73.71283683 59.4375 79.5 C65.00130612 84.18724388 72.08072334 86.43765475 78.8125 88.9375 C80.65969395 89.67762795 82.50441993 90.4239439 84.34667969 91.17626953 C87.99683686 92.65696184 91.65712452 94.10441447 95.33300781 95.52001953 C101.05539891 97.7267551 106.71084311 100.07318704 112.35791016 102.46508789 C114.51013371 103.3764452 116.66836985 104.27378761 118.83349609 105.15405273 C125.57662742 107.9312774 131.16064783 110.61726185 134.703125 117.3828125 C136.46783574 122.47043602 136.41874594 127.78687759 134.58984375 132.84375 C132.18764594 137.20842128 129.30328383 139.68073511 124.890625 141.90625 C117.44860306 143.70750372 111.41473209 142.18773053 104.6015625 139.08984375 C103.77617477 138.73087509 102.95078705 138.37190643 102.10038757 138.00205994 C99.41389314 136.82954542 96.73825231 135.63430175 94.0625 134.4375 C92.19749239 133.61526044 90.33184276 132.79447565 88.46557617 131.97509766 C85.60900299 130.72079694 82.75300905 129.46534924 79.89976501 128.20349121 C73.68131633 125.45875449 67.42846713 122.81786637 61.13671875 120.24609375 C58.76145993 119.26595236 56.38676544 118.28445412 54.012146 117.30276489 C52.51994926 116.69077621 51.02490015 116.08569067 49.5269165 115.48800659 C35.91580708 110.04637146 30.0478504 103.96570916 24.20117188 90.48828125 C23.6337922 89.15899172 23.06673873 87.82956292 22.5 86.5 C21.90694101 85.13873744 21.31254917 83.77805475 20.71679688 82.41796875 C19.27495357 79.11851528 17.85124711 75.81160614 16.4375 72.5 C17.16508032 79.60504455 18.17024229 86.63776445 19.3125 93.6875 C19.47363281 94.74130859 19.63476562 95.79511719 19.80078125 96.88085938 C21.06521354 104.65858821 22.33111068 110.09849103 28.67996216 115.25611877 C31.65377605 117.36080818 34.87953617 118.68586372 38.2421875 120.05078125 C38.9661673 120.35445114 39.69014709 120.65812103 40.43606567 120.97099304 C42.72421695 121.9281061 45.01809825 122.87048365 47.3125 123.8125 C48.87540372 124.46322391 50.43790817 125.11490764 52 125.76757812 C55.80797584 127.3561817 59.62115712 128.93160946 63.4375 130.5 C62.50087224 136.94095711 60.61808506 139.6145612 55.4375 143.5 C48.13560409 147.68092427 39.55833181 146.78888334 31.4375 146.5 C31.10878906 145.33984375 31.10878906 145.33984375 30.7734375 144.15625 C27.33966505 132.87784292 22.79675983 126.26401568 12.4375 120.5 C8.53028789 118.88516065 4.54973739 117.64352584 0.5 116.4375 C-1.13086548 115.93379883 -1.13086548 115.93379883 -2.79467773 115.41992188 C-11.99989616 112.60065886 -21.25824108 109.97162945 -30.5625 107.5 C-30.04042969 107.81114746 -29.51835938 108.12229492 -28.98046875 108.44287109 C-23.72910083 111.57552818 -18.48797613 114.72474543 -13.25244141 117.88378906 C-10.81448092 119.34860105 -8.3676263 120.79706578 -5.91796875 122.2421875 C2.26982902 127.13011715 9.54566029 131.59058842 13.875 140.4375 C15.26018907 147.97908496 14.79544202 153.41812366 11.0703125 160.26171875 C7.84370718 164.68479255 3.53088515 166.80220495 -1.5625 168.5 C-3.20648787 168.59797799 -4.85413656 168.63923213 -6.50102234 168.64717102 C-7.52011185 168.65432632 -8.53920135 168.66148163 -9.58917236 168.66885376 C-11.26532623 168.67288712 -11.26532623 168.67288712 -12.9753418 168.67700195 C-14.15286514 168.68357315 -15.33038849 168.69014435 -16.54359436 168.69691467 C-20.44962922 168.71666313 -24.35565065 168.72831684 -28.26171875 168.73828125 C-29.60842217 168.74232998 -30.95512538 168.74644694 -32.30182838 168.75063133 C-38.63110784 168.76968036 -44.96037567 168.7839105 -51.28967828 168.7922433 C-58.58470067 168.80200708 -65.87941894 168.82830495 -73.17433423 168.86874419 C-78.8194862 168.89895881 -84.46455128 168.91371732 -90.10978252 168.91702431 C-93.47814328 168.91936925 -96.84617906 168.9282559 -100.21445274 168.95348549 C-103.97744296 168.97783438 -107.73964065 168.97691892 -111.50268555 168.9699707 C-112.61000031 168.98278076 -113.71731506 168.99559082 -114.85818481 169.00878906 C-122.3560933 168.95839739 -128.07232256 167.95044108 -133.62109375 162.46484375 C-134.07613281 161.79582031 -134.53117188 161.12679687 -135 160.4375 C-135.70962891 159.43009766 -135.70962891 159.43009766 -136.43359375 158.40234375 C-139.89404918 152.57105727 -139.51985947 144.51055993 -137.984375 138.078125 C-135.53456374 132.33220404 -130.94810621 129.36637236 -125.5625 126.5 C-121.82829403 125.25526468 -118.28884762 125.26790215 -114.39453125 125.18359375 C-113.59971848 125.16281265 -112.8049057 125.14203156 -111.98600769 125.12062073 C-109.44909237 125.05527913 -106.91207427 124.99631192 -104.375 124.9375 C-102.65428628 124.89430014 -100.93358292 124.85068537 -99.21289062 124.80664062 C-94.99619887 124.69961352 -90.7794038 124.59830276 -86.5625 124.5 C-87.30653076 123.97180664 -88.05056152 123.44361328 -88.81713867 122.89941406 C-90.29017456 121.84318848 -90.29017456 121.84318848 -91.79296875 120.765625 C-92.76387451 120.07243164 -93.73478027 119.37923828 -94.73510742 118.66503906 C-105.98455725 110.05091929 -112.49839657 97.41990412 -114.5625 83.5 C-115.91806403 68.23735319 -112.68858643 53.94149068 -103.5625 41.5 C-94.1986848 30.4050593 -83.47326782 25.08109965 -69.91796875 20.4609375 C-68.61787163 20.00918399 -67.31809859 19.5564969 -66.01863098 19.10293579 C-62.62247667 17.92064694 -59.22172382 16.75217859 -55.81988525 15.58636475 C-53.07124556 14.64173007 -50.32614747 13.68705296 -47.58117199 12.7318325 C-10.33564174 -0.2255873 -10.33564174 -0.2255873 0 0 Z M48.4375 54.5 C49.4375 56.5 49.4375 56.5 49.4375 56.5 Z M14.4375 67.5 C15.4375 70.5 15.4375 70.5 15.4375 70.5 Z " fill="currentColor" transform="translate(138.5625,316.5)" />
    <path d="M0 0 C8.97803616 6.64374676 15.73119182 14.99525688 18.15234375 26.09765625 C19.95437346 39.33478805 17.47839785 50.68964949 9.46875 61.421875 C2.09659327 69.7740605 -7.91018614 74.72359568 -19.0390625 75.625 C-31.1365576 75.84167155 -41.66306496 72.60324153 -50.7578125 64.41796875 C-59.8665969 54.88274313 -63.06013263 44.3037063 -62.80859375 31.38671875 C-61.97437375 19.46089758 -56.68651675 11.23618737 -48.28125 3.171875 C-43.78914524 -0.69695973 -39.17045883 -2.85422178 -33.53125 -4.578125 C-32.91894531 -4.76890625 -32.30664062 -4.9596875 -31.67578125 -5.15625 C-20.86661278 -7.2826438 -9.3804789 -5.84832326 0 0 Z " fill="currentColor" transform="translate(389.53125,32.578125)" />
    <path d="M0 0 C8.88487886 6.34634204 14.70211074 15.7282947 16.5390625 26.4921875 C17.54440756 36.77637303 15.5196377 46.93270327 9.3515625 55.3671875 C1.4486935 64.47303022 -7.04906887 69.11932847 -19.05859375 70.87109375 C-28.4675416 71.34536592 -38.47184867 68.25752809 -45.6875 62.18359375 C-53.34746792 54.87794153 -58.91368126 47.03714644 -59.69921875 36.20703125 C-59.94968582 23.45957552 -57.43884697 13.9116335 -48.4609375 4.4921875 C-35.31715099 -7.98327088 -15.26807111 -9.35472294 0 0 Z " fill="currentColor" transform="translate(264.4609375,331.5078125)" />
</svg>