<svg xmlns="http://www.w3.org/2000/svg" version="1.0" viewBox="0 0" width="512" height="512" preserveAspectRatio="xMidYMid meet">

    <g transform="translate(0.000000,512.000000) scale(0.100000,-0.100000)" fill="#000000" stroke="none">
        <path d="M1186 5109 c-508 -67 -952 -435 -1116 -927 -51 -155 -65 -241 -65 -422 0 -120 5 -188 18 -250 117 -554 544 -974 1095 -1077 l92 -17 0 -411 0 -410 408 407 407 407 960 4 c934 3 962 4 1050 24 427 100 754 353 944 731 97 193 136 362 136 592 0 182 -14 267 -66 425 -68 203 -171 367 -334 531 -200 200 -398 309 -695 380 -70 17 -165 18 -1420 20 -749 1 -1375 -2 -1414 -7z m2944 -614 c72 -36 130 -67 130 -70 0 -3 -56 -118 -125 -255 -69 -137 -125 -252 -125 -255 0 -3 133 -5 295 -5 162 0 295 -2 295 -5 0 -3 -106 -217 -235 -475 -204 -408 -238 -469 -253 -462 -9 5 -70 35 -134 67 -65 32 -118 60 -118 62 0 2 56 116 125 253 69 137 125 252 125 255 0 3 -133 5 -295 5 -162 0 -295 2 -295 5 0 10 470 945 475 945 3 0 64 -29 135 -65z m-2920 -135 l0 -150 150 0 150 0 0 150 0 150 150 0 150 0 0 -150 0 -150 150 0 150 0 0 -150 0 -150 -150 0 -150 0 0 -150 0 -150 150 0 150 0 0 -150 0 -150 -150 0 -150 0 0 -150 0 -150 -150 0 -150 0 0 150 0 150 -150 0 -150 0 0 -150 0 -150 -150 0 -150 0 0 150 0 150 -150 0 -150 0 0 150 0 150 150 0 150 0 0 150 0 150 -150 0 -150 0 0 150 0 150 150 0 150 0 0 150 0 150 150 0 150 0 0 -150z m1500 -300 l0 -450 -150 0 -150 0 0 450 0 450 150 0 150 0 0 -450z m600 0 l0 -450 -150 0 -150 0 0 450 0 450 150 0 150 0 0 -450z m-600 -900 l0 -150 -150 0 -150 0 0 150 0 150 150 0 150 0 0 -150z m600 0 l0 -150 -150 0 -150 0 0 150 0 150 150 0 150 0 0 -150z"/>
        <path d="M1210 3760 l0 -150 150 0 150 0 0 150 0 150 -150 0 -150 0 0 -150z"/>
        <path d="M3212 1791 c-101 -35 -172 -116 -194 -224 -23 -108 22 -227 110 -294 72 -55 119 -63 366 -63 l221 0 323 -215 322 -215 0 214 0 215 268 3 267 3 57 28 c107 53 163 144 163 267 0 123 -56 214 -163 267 l-57 28 -815 2 c-769 2 -818 2 -868 -16z"/>
        <path d="M202 961 c-101 -35 -172 -116 -194 -224 -23 -108 22 -227 110 -294 74 -56 116 -63 394 -63 l248 0 2 -189 3 -189 319 188 320 189 240 3 c241 3 241 3 298 31 107 53 163 144 163 267 0 123 -56 214 -163 267 l-57 28 -815 2 c-769 2 -818 2 -868 -16z"/>
    </g>
</svg>