<svg xmlns="http://www.w3.org/2000/svg" version="1.1" width="512" height="512">
    <path d="M0 0 C0.66 0 1.32 0 2 0 C2.50789063 1.0621875 3.01578125 2.124375 3.5390625 3.21875 C8.7910769 14.22897373 8.7910769 14.22897373 16 24 C16.70511719 24.79664063 17.41023438 25.59328125 18.13671875 26.4140625 C33.33200236 42.6125774 50.2925589 46.5725093 72 50 C72 81.35 72 112.7 72 145 C63.71743047 140.85871524 56.3952419 132.68437085 53.39453125 123.83203125 C51.04885963 115.71895899 51.52991051 107.15188912 51.48876953 98.77612305 C51.47311494 96.57048605 51.44017201 94.36557551 51.40625 92.16015625 C51.39916016 90.85699463 51.39207031 89.55383301 51.38476562 88.21118164 C51.26174352 85.05497992 51.26174352 85.05497992 49.66210938 83.07983398 C47.01760592 81.36176131 45.06063662 81.55365716 42 82 C39.5362946 84.3587899 39.02537307 85.79075991 38.61181641 89.20117188 C38.60843262 90.44447266 38.60504883 91.68777344 38.6015625 92.96875 C38.59869232 93.64490356 38.59582214 94.32105713 38.59286499 95.0177002 C38.59082667 96.44995968 38.59634044 97.88224714 38.60888672 99.31445312 C38.62474572 101.46551051 38.60913739 103.61463105 38.58984375 105.765625 C38.55587224 121.84299206 42.09300226 135.1075615 53.51074219 147.01489258 C55.17717869 148.65401198 56.85639714 150.28021789 58.546875 151.89453125 C59.43989319 152.77098801 60.33291138 153.64744476 61.25299072 154.55046082 C64.07342901 157.3169874 66.90978953 160.06628663 69.75 162.8125 C72.60430765 165.57656763 75.45276308 168.34633869 78.28985596 171.12809753 C80.04632392 172.84996093 81.81216703 174.56232832 83.58856201 176.2636261 C88.9032574 181.46883106 92.35309537 185.48332353 93.43359375 193.02734375 C93.4437792 200.61550692 92.62803095 206.0645088 87.38671875 211.75 C81.84178072 216.86462133 76.27072511 218.63878618 68.74981689 218.33726501 C57.74451895 216.98746533 50.15859243 207.91035282 42.765625 200.46484375 C41.51698811 199.22212892 40.26768759 197.98008058 39.01776123 196.73866272 C36.41088784 194.14361744 33.81342695 191.53958891 31.22216797 188.92895508 C27.92357975 185.6075129 24.60083814 182.31151064 21.270298 179.02214718 C18.68738222 176.46498191 16.11889188 173.89369184 13.55425262 171.31820869 C12.33573905 170.09822239 11.11272093 168.88271595 9.88489532 167.67210197 C-0.03834239 157.86553242 -8.05649712 148.15714847 -8.15771484 133.52294922 C-8.16797699 132.45188934 -8.17823914 131.38082947 -8.18881226 130.27731323 C-8.19611359 129.13134674 -8.20341492 127.98538025 -8.2109375 126.8046875 C-8.23898738 124.37369097 -8.26765169 121.94270146 -8.296875 119.51171875 C-8.33825999 115.6821295 -8.37515282 111.85267418 -8.40136719 108.02294922 C-8.42886887 104.32492137 -8.474718 100.62748833 -8.5234375 96.9296875 C-8.52669037 95.77967255 -8.52994324 94.62965759 -8.53329468 93.4447937 C-8.54986115 92.38003815 -8.56642761 91.31528259 -8.58349609 90.21826172 C-8.59562637 88.81191971 -8.59562637 88.81191971 -8.60800171 87.37716675 C-8.82798255 84.95760397 -8.82798255 84.95760397 -10.30337524 83.16995239 C-12.1454447 81.65685768 -12.1454447 81.65685768 -15.5625 82.0625 C-19.0068693 82.60280927 -19.0068693 82.60280927 -20.19866943 84.75524902 C-21.09466251 87.26517616 -21.2537646 89.19105862 -21.25878906 91.85351562 C-21.26509338 92.8155188 -21.27139771 93.77752197 -21.27789307 94.76867676 C-21.2738446 95.80407593 -21.26979614 96.8394751 -21.265625 97.90625 C-21.26753845 98.98193237 -21.2694519 100.05761475 -21.27142334 101.16589355 C-21.27278456 103.44555901 -21.26909256 105.72523224 -21.26074219 108.00488281 C-21.2501255 111.45916676 -21.26059636 114.91292064 -21.2734375 118.3671875 C-21.27211426 120.5885428 -21.26954848 122.80989777 -21.265625 125.03125 C-21.26967346 126.05045532 -21.27372192 127.06966064 -21.27789307 128.11975098 C-21.21954068 137.25739919 -20.66400093 146.86465915 -16.4375 155.125 C-16.00308594 156.01445312 -15.56867188 156.90390625 -15.12109375 157.8203125 C-8.78827694 167.31370639 0.08083298 175.21776641 8.1484375 183.24609375 C9.29446109 184.39024624 10.44025964 185.53462417 11.58584595 186.67921448 C14.57112126 189.66071211 17.55938712 192.63919399 20.54833984 195.61700439 C23.59786658 198.65623969 26.6445124 201.69835998 29.69140625 204.74023438 C35.03390986 210.07322129 40.37887739 215.40372746 45.72567749 220.73240662 C47.48526498 222.48678795 49.24301366 224.24301366 51 226 C14.37 226 -22.26 226 -60 226 C-60.061875 210.49 -60.12375 194.98 -60.1875 179 C-60.21481201 174.15441406 -60.24212402 169.30882812 -60.27026367 164.31640625 C-60.28381348 158.26757812 -60.28381348 158.26757812 -60.28633118 155.41040039 C-60.29085225 153.47060055 -60.30121758 151.53080756 -60.31672668 149.59106445 C-60.65009 105.58621242 -49.45047589 65.63102569 -22.74707031 30.32080078 C-20.91228534 27.88348022 -19.10559871 25.42728527 -17.3046875 22.96484375 C-13.88812459 18.29595915 -10.46789412 13.63094442 -7 9 C-6.37319336 8.1558252 -5.74638672 7.31165039 -5.10058594 6.44189453 C-4.47700195 5.6167334 -3.85341797 4.79157227 -3.2109375 3.94140625 C-2.6442334 3.18674072 -2.0775293 2.4320752 -1.49365234 1.65454102 C-1.00074707 1.10854248 -0.5078418 0.56254395 0 0 Z " fill="#000000" transform="translate(349,228)"/>
    <path d="M0 0 C1.73217353 -0.00542678 3.46434244 -0.01255256 5.19650269 -0.02124023 C9.88035788 -0.03940903 14.56385896 -0.03243315 19.24772 -0.01972389 C24.15937297 -0.00956436 29.07099654 -0.0189976 33.98265076 -0.02526855 C42.22823505 -0.03253568 50.4736758 -0.02298108 58.71923828 -0.00390625 C68.24139195 0.0178679 77.76320308 0.0108034 87.28534847 -0.01121187 C95.47415198 -0.02938389 103.66285257 -0.0319156 111.85166973 -0.0214572 C116.73675235 -0.01523311 121.62167412 -0.01435691 126.50674629 -0.02760315 C131.09929383 -0.03918753 135.69140107 -0.03108879 140.28390121 -0.00802612 C141.96566348 -0.00275314 143.64746303 -0.00422859 145.32921028 -0.01307678 C162.52619342 -0.09519009 162.52619342 -0.09519009 169.91577148 6.29882812 C170.37081055 6.86601562 170.82584961 7.43320312 171.29467773 8.01757812 C171.76776367 8.58476562 172.24084961 9.15195312 172.72827148 9.73632812 C175.5085688 14.12323324 175.45092618 19.49545581 174.85717773 24.51757812 C172.85570332 30.70692021 169.61698352 34.19712179 164.10301208 37.60020447 C161.12614348 38.81618945 158.63823573 38.79170872 155.42382812 38.82055664 C154.11889908 38.83719864 152.81397003 38.85384064 151.46949768 38.87098694 C150.0479435 38.87954995 148.62638892 38.8880475 147.20483398 38.89648438 C145.74278156 38.91266797 144.28073986 38.92984888 142.81871033 38.94798279 C138.9721474 38.99363306 135.12556983 39.02844995 131.27886963 39.06018066 C125.12573622 39.11207629 118.97276192 39.17741971 112.81982231 39.24839592 C110.67449706 39.27114334 108.5291916 39.28747134 106.38380432 39.30311584 C105.07572311 39.31660568 103.76764191 39.33009552 102.41992188 39.34399414 C100.69594933 39.35826195 100.69594933 39.35826195 98.93714905 39.37281799 C96.13115956 39.50470085 93.58713547 39.87859671 90.85717773 40.51757812 C89.66787159 44.77388242 89.68208578 48.93424693 89.65185547 53.32519531 C89.64182275 54.22768635 89.63179003 55.13017738 89.62145329 56.06001663 C89.59009898 58.97813611 89.56530972 61.8962692 89.54077148 64.81445312 C89.52236522 66.61735474 89.50352838 68.420252 89.48425293 70.22314453 C89.41584097 76.90457098 89.35576532 83.58608069 89.29467773 90.26757812 C89.15030273 105.20007813 89.00592773 120.13257813 88.85717773 135.51757812 C58.49717773 135.51757812 28.13717773 135.51757812 -3.14282227 135.51757812 C-2.64782227 131.55757813 -2.64782227 131.55757813 -2.14282227 127.51757812 C-2.05900225 125.86046132 -2.00577672 124.20120717 -1.99755859 122.54199219 C-1.99117874 121.65457336 -1.98479889 120.76715454 -1.97822571 119.85284424 C-1.97711288 118.92236267 -1.97600006 117.9918811 -1.97485352 117.03320312 C-1.97152512 116.05518738 -1.96819672 115.07717163 -1.96476746 114.06951904 C-1.95973181 112.01558906 -1.95735808 109.96165099 -1.95751953 107.90771484 C-1.95531921 104.76321143 -1.93709033 101.61905151 -1.91821289 98.47460938 C-1.91528104 96.47330849 -1.91329485 94.47200594 -1.91235352 92.47070312 C-1.905168 91.53212463 -1.89798248 90.59354614 -1.89057922 89.62652588 C-1.89519417 88.31431061 -1.89519417 88.31431061 -1.89990234 86.97558594 C-1.89847733 86.20917786 -1.89705231 85.44276978 -1.89558411 84.65313721 C-2.18397605 82.16210571 -2.74060574 80.59808286 -4.14282227 78.51757812 C-7.55948893 77.43424479 -7.55948893 77.43424479 -11.14282227 77.51757812 C-13.31923246 79.06935546 -14.04541346 79.97598314 -14.5213623 82.62226868 C-14.52341675 83.43245956 -14.52547119 84.24265045 -14.52758789 85.07739258 C-14.53769897 85.99877518 -14.54781006 86.92015778 -14.55822754 87.86946106 C-14.5552063 88.8632225 -14.55218506 89.85698395 -14.54907227 90.88085938 C-14.55990845 91.9055986 -14.57074463 92.93033783 -14.58190918 93.98612976 C-14.61623373 97.26750979 -14.63177251 100.54854202 -14.64282227 103.83007812 C-14.65740194 108.1390061 -14.69113685 112.44715853 -14.73657227 116.75585938 C-14.73355103 117.74354813 -14.73052979 118.73123688 -14.72741699 119.74885559 C-14.78513728 125.0626579 -15.06304838 128.97346404 -18.14282227 133.51757812 C-21.13964359 135.51545901 -22.08367373 135.8769304 -25.51782227 136.01757812 C-26.26805664 136.06914062 -27.01829102 136.12070312 -27.79125977 136.17382812 C-30.73659808 135.35187325 -32.18938971 133.85501686 -34.0712738 131.49079704 C-36.22725922 127.5206255 -35.81627614 123.17113463 -35.75805664 118.75805664 C-35.76360565 117.6857782 -35.76915466 116.61349976 -35.77487183 115.50872803 C-35.78666415 111.97085619 -35.76239364 108.43426631 -35.73657227 104.89648438 C-35.73486088 102.43318236 -35.73492713 99.96987852 -35.73669434 97.50657654 C-35.73504126 92.34592241 -35.71634577 87.18570275 -35.68481445 82.02514648 C-35.64515842 75.4164177 -35.64076708 68.8082585 -35.64827728 62.19943333 C-35.65134993 57.11299948 -35.63921548 52.0266932 -35.62214661 46.94029045 C-35.61512432 44.50388324 -35.61199114 42.06746157 -35.61283875 39.63104439 C-35.61103705 36.22259629 -35.5896214 32.81482492 -35.56274414 29.40649414 C-35.56567474 28.40315536 -35.56860535 27.39981659 -35.57162476 26.36607361 C-35.4735792 18.28971225 -33.66354692 12.184323 -27.97429562 6.20891571 C-20.17552021 -0.99313392 -9.91095781 -0.05221332 0 0 Z " fill="#000000" transform="translate(74.142822265625,344.482421875)"/>
    <path d="M0 0 C14.92565416 -0.18750822 28.02806941 6.52055944 38.71484375 16.6484375 C44.91577308 23.02956477 49.56782391 29.77786388 53 38 C53.32097656 38.76054687 53.64195312 39.52109375 53.97265625 40.3046875 C58.55745542 53.65391672 57.69076965 71.21355193 52 84 C51.5875 84.93714844 51.175 85.87429687 50.75 86.83984375 C42.92447819 102.69097173 29.68562648 112.50889677 13.2265625 118.08984375 C-2.08519032 122.40901858 -18.72207035 120.46869964 -32.875 113.3125 C-38.56729095 109.92280494 -43.3214595 105.66200855 -48 101 C-48.56460937 100.45859375 -49.12921875 99.9171875 -49.7109375 99.359375 C-59.75899611 88.83283741 -64.01148885 73.676935 -64.375 59.5 C-63.97637911 43.33924456 -58.45296915 28.64832896 -47 17 C-46.01 16.67 -45.02 16.34 -44 16 C-43.98018066 16.59014893 -43.96036133 17.18029785 -43.93994141 17.78833008 C-43.84465341 20.46350096 -43.73499061 23.13789498 -43.625 25.8125 C-43.5940625 26.74126953 -43.563125 27.67003906 -43.53125 28.62695312 C-43.49257813 29.51962891 -43.45390625 30.41230469 -43.4140625 31.33203125 C-43.36693115 32.56530151 -43.36693115 32.56530151 -43.31884766 33.82348633 C-43.11626378 36.28952937 -43.11626378 36.28952937 -41 39 C-39.1935345 40.0146239 -39.1935345 40.0146239 -37 40 C-33.30240822 38.23136411 -33.30240822 38.23136411 -31 35 C-30.84504237 32.75025839 -30.74989072 30.49628464 -30.68359375 28.2421875 C-30.66281265 27.57913605 -30.64203156 26.91608459 -30.62062073 26.23294067 C-30.55520769 24.11373306 -30.49627895 21.994401 -30.4375 19.875 C-30.39430691 18.43878919 -30.35069236 17.00259098 -30.30664062 15.56640625 C-30.19953501 12.04440406 -30.09824425 8.52226175 -30 5 C-28.274773 4.32320342 -26.54461061 3.65898 -24.8125 3 C-23.36810547 2.443125 -23.36810547 2.443125 -21.89453125 1.875 C-19.07817642 1.02363228 -16.91835561 0.82927353 -14 1 C-13.99589111 2.07483643 -13.99178223 3.14967285 -13.98754883 4.25708008 C-13.96578146 8.24389646 -13.91151828 12.22972248 -13.84741211 16.21606445 C-13.82421089 17.94155386 -13.80983138 19.6671853 -13.80444336 21.39282227 C-13.79516861 23.87346117 -13.7542165 26.35185971 -13.70703125 28.83203125 C-13.7109639 29.60400345 -13.71489655 30.37597565 -13.71894836 31.17134094 C-13.7073998 33.61369134 -13.7073998 33.61369134 -13 37 C-10.76114114 39.16602274 -10.76114114 39.16602274 -8 40 C-5.24308557 39.66390749 -5.24308557 39.66390749 -3 38 C-0.81616838 33.8768382 -0.66176638 29.8621051 -0.5859375 25.29296875 C-0.56657135 24.56757401 -0.5472052 23.84217926 -0.5272522 23.09480286 C-0.46777892 20.79248578 -0.42120155 18.49011781 -0.375 16.1875 C-0.33679042 14.62042168 -0.29773697 13.05336369 -0.2578125 11.48632812 C-0.16210437 7.65771848 -0.07795552 3.82901058 0 0 Z " fill="#000000" transform="translate(424,144)"/>
    <path d="M0 0 C1.10261723 -0.00573832 1.10261723 -0.00573832 2.22750956 -0.01159257 C4.68556478 -0.0218944 7.14338518 -0.01793582 9.60145569 -0.01396179 C11.36583675 -0.01830981 13.13021592 -0.02349327 14.89459229 -0.02944946 C19.6838238 -0.04284065 24.47297641 -0.04341802 29.26222301 -0.04088616 C33.26080796 -0.03981659 37.25937694 -0.04469946 41.25795847 -0.04949158 C50.69115459 -0.06058708 60.12431089 -0.06102386 69.55751038 -0.05497742 C79.28859753 -0.04893595 89.01954016 -0.06125295 98.75060266 -0.08254749 C107.10657611 -0.10016045 115.46250353 -0.10616534 123.81849486 -0.10290974 C128.80863185 -0.10109634 133.79866574 -0.10373885 138.78878593 -0.11762428 C143.48132262 -0.13019311 148.17363387 -0.12826746 152.86616707 -0.11521339 C154.58747559 -0.11284605 156.30879994 -0.11558797 158.03009033 -0.12383652 C160.38173146 -0.13429242 162.73261455 -0.12621312 165.08422852 -0.11352539 C166.39958556 -0.11369313 167.71494261 -0.11386087 169.07015896 -0.1140337 C174.27500278 0.43763958 178.35908663 2.41362659 181.85560608 6.32319641 C185.23827636 10.56269082 186.49005892 14.86299327 186.60560608 20.26069641 C185.63708387 26.40784759 183.07038703 30.99886005 178.60560608 35.26069641 C173.63942133 37.7857988 169.94570213 38.64902332 164.30018616 38.72822571 C163.60642883 38.74151413 162.91267151 38.75480255 162.19789124 38.76849365 C159.92352056 38.80691468 157.6497909 38.82274669 155.37513733 38.83491516 C153.77721028 38.84965964 152.17928446 38.86453929 150.58135986 38.87954712 C147.2367806 38.90646848 143.89242223 38.92006875 140.54774475 38.9264679 C136.29165202 38.93731131 132.03794529 38.99896066 127.78255177 39.07318401 C124.48190729 39.12190519 121.18182294 39.13400636 117.88084984 39.13652992 C116.3136854 39.14369541 114.74651743 39.1639195 113.1797123 39.19823265 C103.52972883 39.39338061 96.94893501 38.33457856 89.05093384 32.15919495 C85.71923351 29.5725363 82.75349911 28.5387157 78.73060608 27.32319641 C77.5163092 26.94292297 76.30201233 26.56264954 75.05091858 26.17085266 C58.09080939 21.69046101 40.79060352 24.37839021 25.70716858 33.15522766 C11.28602009 42.94489899 0.93637534 56.90501572 -2.44248962 74.24165344 C-3.48955434 80.15269387 -3.67380806 85.88717488 -3.66783142 91.87788391 C-3.68809464 94.05236847 -3.70894486 96.22684762 -3.73033142 98.40132141 C-3.75302187 101.7851577 -3.76945065 105.16877937 -3.7752533 108.5526886 C-3.7847554 111.8489671 -3.81846812 115.1443139 -3.85533142 118.44038391 C-3.85028595 119.45188507 -3.84524048 120.46338623 -3.84004211 121.50553894 C-3.90223515 125.9373948 -3.94824492 128.5328652 -6.30308533 132.37446594 C-8.99166431 134.79939721 -9.99717256 135.21486318 -13.64439392 135.63569641 C-17.42310448 135.25782536 -19.31060599 134.5574976 -22.1397953 132.03496742 C-24.79236372 128.28366786 -24.21296076 123.68652305 -24.15489197 119.26338196 C-24.16379959 118.15384155 -24.17270721 117.04430115 -24.18188477 115.90113831 C-24.20319699 112.23263263 -24.18083789 108.56587821 -24.15611267 104.89741516 C-24.15761501 102.34539612 -24.16104483 99.79337755 -24.1663208 97.24136353 C-24.17065546 91.89053883 -24.15441868 86.5403341 -24.12168884 81.18965149 C-24.0842523 75.01881628 -24.0859484 68.84893596 -24.10873002 62.6780507 C-24.12974633 56.72725914 -24.122268 50.7767593 -24.10241127 44.82595253 C-24.09657051 42.30105531 -24.09785041 39.77613106 -24.10643578 37.25124168 C-24.11445187 33.71562068 -24.09011624 30.18164097 -24.05723572 26.64619446 C-24.06578583 25.60747696 -24.07433594 24.56875946 -24.08314514 23.49856567 C-23.96386258 16.04431376 -22.13926545 11.1159565 -16.9165144 5.73925304 C-11.55721305 0.97345559 -7.04209937 0.01099371 0 0 Z " fill="#000000" transform="translate(55.39439392089844,169.7393035888672)"/>
    <path d="M0 0 C9.80368161 7.95517598 15.58880338 18.67309591 18 31 C19.49211854 46.31705362 16.0557351 60.06579752 6.2578125 72.1484375 C-2.75029431 81.90410505 -14.33803707 87.23007927 -27.48046875 88.27734375 C-41.39016388 88.65656117 -53.63091076 84.86114683 -64.25 75.75 C-74.72206367 65.8031809 -79.8031623 53.76689769 -80.25 39.375 C-80.0941009 25.37872495 -75.1023314 13.44801955 -65.5234375 3.328125 C-46.95400681 -13.80404325 -20.36034954 -14.36183296 0 0 Z " fill="#000000" transform="translate(145,217)"/>
    <path d="M0 0 C0.8559375 0.43570313 1.711875 0.87140625 2.59375 1.3203125 C13.30388838 7.22379239 21.63963498 16.04672034 25.2578125 27.87890625 C29.27534945 42.27762305 28.92947996 55.46585945 22 69 C14.78137678 80.29789728 5.06629098 87.70316692 -7.4375 92.25 C-22.95071158 95.51593928 -36.45043884 93.4705041 -50 85 C-59.51518412 78.20529944 -66.61055182 68.43988075 -69.5625 57.01953125 C-71.82209245 41.42430835 -69.94568291 27.75330958 -60.96875 14.53515625 C-47.31513291 -3.0465848 -20.21004847 -10.84605934 0 0 Z " fill="#000000" transform="translate(128,36)"/>
    <path d="M0 0 C2.94129208 0.79890466 5.85591048 1.66155505 8.77090454 2.55166626 C10.37322685 3.03328972 10.37322685 3.03328972 12.00791931 3.52464294 C14.25768598 4.20475953 16.50588988 4.8900646 18.75259399 5.58023071 C22.18988638 6.63161773 25.63499622 7.65382333 29.08145142 8.67471313 C31.2701393 9.34026798 33.45830949 10.00752817 35.64590454 10.67666626 C36.6751152 10.97896652 37.70432587 11.28126678 38.76472473 11.59272766 C47.7300945 14.39927943 47.7300945 14.39927943 50.50918579 19.44619751 C51.10930484 23.12192667 51.03593725 24.69658967 48.88418579 27.75869751 C45.82932289 29.92925799 44.28828605 30.22848763 40.50918579 30.44619751 C36.71700483 29.69876001 33.06647079 28.55644565 29.38027954 27.40322876 C28.31302139 27.07835983 27.24576324 26.75349091 26.14616394 26.41877747 C23.89421632 25.7297259 21.64423935 25.0342051 19.39614868 24.33267212 C15.96063415 23.26304027 12.51796773 22.21947041 9.07363892 21.17861938 C6.88370898 20.50503742 4.6942393 19.8299569 2.50527954 19.15322876 C1.47809311 18.84263016 0.45090668 18.53203156 -0.60740662 18.21202087 C-5.60363384 16.63594402 -9.73353081 15.28718522 -13.49081421 11.44619751 C-14.35638792 8.6935656 -14.10002956 6.25088706 -13.49081421 3.44619751 C-10.20292821 -1.81442008 -5.46710376 -1.21554457 0 0 Z " fill="#000000" transform="translate(213.49081420898438,84.55380249023438)"/>
    <path d="M0 0 C3.02791041 2.57372384 3.86162709 4.15246594 4.5 8.0625 C3.87672481 11.72424171 2.79652623 12.62500787 0 15 C-2.32055664 16.06152344 -2.32055664 16.06152344 -4.91015625 16.859375 C-5.88750732 17.16697754 -6.8648584 17.47458008 -7.87182617 17.79150391 C-8.92474854 18.10780762 -9.9776709 18.42411133 -11.0625 18.75 C-12.69892456 19.25345947 -12.69892456 19.25345947 -14.3684082 19.76708984 C-16.69673714 20.48072473 -19.02679895 21.18872587 -21.35839844 21.89160156 C-25.06429057 23.0195682 -28.75481956 24.18990574 -32.4453125 25.3671875 C-34.85898874 26.12102954 -37.27304169 26.87366662 -39.6875 27.625 C-40.82646729 27.99206055 -41.96543457 28.35912109 -43.13891602 28.73730469 C-44.21069092 29.06375977 -45.28246582 29.39021484 -46.38671875 29.7265625 C-47.79763794 30.16863037 -47.79763794 30.16863037 -49.23706055 30.61962891 C-52.70606082 31.09720268 -54.8126868 30.38398339 -58 29 C-60.36968107 26.63031893 -60.37023806 25.87986199 -60.5 22.625 C-60.5515625 21.85414062 -60.603125 21.08328125 -60.65625 20.2890625 C-59.82920375 17.4042464 -58.42569159 16.59144361 -55.95245361 15.02462769 C-52.04965495 12.97647887 -47.84026679 11.81154179 -43.6328125 10.546875 C-42.63925751 10.24179016 -41.64570251 9.93670532 -40.62203979 9.62237549 C-38.52735949 8.98225036 -36.431137 8.34715263 -34.33349609 7.71679688 C-31.13790814 6.75388953 -27.9497955 5.76870305 -24.76171875 4.78125 C-22.71916218 4.16010131 -20.67620575 3.5402657 -18.6328125 2.921875 C-17.68673126 2.62819031 -16.74065002 2.33450562 -15.76589966 2.03192139 C-10.3233187 0.41675876 -5.68306905 -0.5133915 0 0 Z " fill="#000000" transform="translate(260,43)"/>
    <path d="M0 0 C2.30275556 1.8670991 3.67823871 3.35647741 5 6 C5.12285662 8.42232293 5.18832331 10.81482056 5.203125 13.23828125 C5.20882507 13.95606247 5.21452515 14.67384369 5.22039795 15.41337585 C5.22984952 16.93401617 5.23638256 18.45467699 5.24023438 19.9753418 C5.24991925 22.29317389 5.2809308 24.61011125 5.3125 26.92773438 C5.31903237 28.40624474 5.32428192 29.88476145 5.328125 31.36328125 C5.3404718 32.05303543 5.3528186 32.74278961 5.36553955 33.45344543 C5.34550609 37.81815263 4.68551952 40.54005342 2 44 C-1 46 -1 46 -4.5 45.875 C-8 45 -8 45 -9.68945312 43.46679688 C-11.56192805 39.94230235 -11.46773833 36.55462803 -11.46875 32.65625 C-11.47636353 31.85014282 -11.48397705 31.04403564 -11.49182129 30.21350098 C-11.50260754 28.51231987 -11.50548137 26.81107262 -11.50097656 25.10986328 C-11.50000311 22.5083185 -11.54165893 19.9097136 -11.5859375 17.30859375 C-11.59114399 15.65365197 -11.5938327 13.99869996 -11.59375 12.34375 C-11.61014526 11.56761353 -11.62654053 10.79147705 -11.64343262 9.99182129 C-11.59382297 6.11303432 -11.35683813 4.37882482 -8.65429688 1.50976562 C-5.40937647 -0.33594701 -3.67608009 -0.62571576 0 0 Z " fill="#000000" transform="translate(390,95)"/>
    <path d="M0 0 C3.01969575 2.21822154 3.90314525 3.41156169 4.51757812 7.14453125 C4.52208984 8.35496094 4.52660156 9.56539062 4.53125 10.8125 C4.5350769 11.46323486 4.53890381 12.11396973 4.54284668 12.78442383 C4.54556076 14.15610304 4.53823453 15.52783444 4.52148438 16.89941406 C4.50006119 18.99401685 4.52129637 21.08519084 4.546875 23.1796875 C4.54423163 24.51563254 4.53910643 25.85157545 4.53125 27.1875 C4.52673828 28.39792969 4.52222656 29.60835937 4.51757812 30.85546875 C3.90314525 34.58843831 3.01969575 35.78177846 0 38 C-3.85642489 38.55091784 -5.99458537 38.73856195 -9.18554688 36.39453125 C-11.60503499 33.20153617 -11.51641068 31.16867746 -11.53125 27.1875 C-11.5350769 26.53676514 -11.53890381 25.88603027 -11.54284668 25.21557617 C-11.54556076 23.84389696 -11.53823453 22.47216556 -11.52148438 21.10058594 C-11.50006119 19.00598315 -11.52129637 16.91480916 -11.546875 14.8203125 C-11.54423163 13.48436746 -11.53910643 12.14842455 -11.53125 10.8125 C-11.52673828 9.60207031 -11.52222656 8.39164063 -11.51757812 7.14453125 C-10.4103815 0.41778947 -6.31706403 -0.90243772 0 0 Z " fill="#000000" transform="translate(420,95)"/>
</svg>